<svg xmlns="http://www.w3.org/2000/svg" data-name="Layer 1" width="520.34017" height="557.40051" viewBox="0 0 520.34017 557.40051" xmlns:xlink="http://www.w3.org/1999/xlink"><path d="M566.85842,727.10465h-34.985c-1.49755,0-2.716-1.53809-2.716-3.42836V686.50151c0-1.89027,1.21842-3.42836,2.716-3.42836h34.985c1.49755,0,2.716,1.53809,2.716,3.42836v37.17478C569.5744,725.56656,568.356,727.10465,566.85842,727.10465Z" transform="translate(-339.82991 -171.29975)" fill="#f2f2f2"/><path d="M407.41647,709.3071a2.26935,2.26935,0,0,1-1.64469-3.93333l.1555-.61819q-.03071-.07428-.06178-.1484a6.09417,6.09417,0,0,0-11.24139.04177c-1.83858,4.42817-4.17942,8.86389-4.75579,13.54594a18.02868,18.02868,0,0,0,.31648,6.20047,72.28153,72.28153,0,0,1-6.57515-30.02077,69.76395,69.76395,0,0,1,.43275-7.783q.35849-3.17779.9947-6.31033a73.11887,73.11887,0,0,1,14.50012-30.98962,19.459,19.459,0,0,0,8.093-8.39652,14.84338,14.84338,0,0,0,1.34991-4.05618c-.394.05168-1.48556-5.94866-1.1884-6.3168-.54906-.83316-1.53178-1.24732-2.13144-2.06034-2.98232-4.0434-7.0912-3.33741-9.2362,2.15727-4.58224,2.31266-4.6266,6.14806-1.815,9.83683,1.78877,2.34681,2.03455,5.52233,3.60408,8.03478-.16151.20671-.32944.407-.4909.61366a73.59114,73.59114,0,0,0-7.681,12.16859,30.59255,30.59255,0,0,0-1.82641-14.20958c-1.74819-4.21732-5.02491-7.76915-7.91045-11.415a6.27922,6.27922,0,0,0-11.184,3.08333q-.00887.08062-.01731.16119.6429.36268,1.25864.76992a3.0782,3.0782,0,0,1-1.24107,5.60174l-.06277.00968a30.62792,30.62792,0,0,0,.80734,4.57937c-3.70179,14.31579,4.29012,19.5299,15.70148,19.76413.25191.12916.49738.25832.74929.38108a75.11427,75.11427,0,0,0-4.04327,19.02779,71.24344,71.24344,0,0,0,.05168,11.50323l-.01939-.13562a18.82566,18.82566,0,0,0-6.4266-10.87028c-4.94561-4.06263-11.93282-5.55868-17.26826-8.82425a3.533,3.533,0,0,0-5.41121,3.43708l.02182.14261a20.67541,20.67541,0,0,1,2.31871,1.11733q.6429.36276,1.25864.76992a3.07824,3.07824,0,0,1-1.24108,5.6018l-.06282.00964c-.04519.00646-.084.013-.12911.01944a30.65448,30.65448,0,0,0,5.63854,8.82922c2.31464,12.49713,12.256,13.68283,22.89023,10.04354h.00648a75.09193,75.09193,0,0,0,5.0444,14.72621h18.02019c.06463-.20022.12273-.40693.18089-.60717a20.47425,20.47425,0,0,1-4.98629-.297c1.337-1.64058,2.674-3.29409,4.011-4.93462a1.12053,1.12053,0,0,0,.084-.09689c.67817-.8396,1.36282-1.67283,2.041-2.51246l.00037-.001a29.99039,29.99039,0,0,0-.87876-7.63984Z" transform="translate(-339.82991 -171.29975)" fill="#f2f2f2"/><path d="M841.21415,277.84488c0-1.47833-1.72271-2.67676-3.84784-2.67676-2.12506,0-3.84777,1.19843-3.84777,2.67676s1.72271,2.6767,3.84777,2.6767C839.49144,280.52164,841.21415,279.32321,841.21415,277.84488Z" transform="translate(-339.82991 -171.29975)" fill="#f2f2f2"/><ellipse cx="473.11105" cy="112.56778" rx="3.84784" ry="2.67676" fill="#f2f2f2"/><ellipse cx="507.23965" cy="125.61697" rx="3.84784" ry="2.67676" fill="#f2f2f2"/><path d="M856.52745,300.92673c-.9256.12756-1.52729,1.30951-1.34394,2.64.18329,1.33045,1.08222,2.30567,2.00776,2.17816s1.52728-1.3095,1.344-2.64C858.35191,301.77445,857.453,300.79923,856.52745,300.92673Z" transform="translate(-339.82991 -171.29975)" fill="#f2f2f2"/><path d="M639.413,320.87772c-.18329-1.33051-1.08222-2.30573-2.00776-2.17816-.92559.1275-1.52728,1.30944-1.344,2.63995.18335,1.3305,1.08228,2.30566,2.00781,2.17816C638.99461,323.39017,639.5963,322.20816,639.413,320.87772Z" transform="translate(-339.82991 -171.29975)" fill="#f2f2f2"/><path d="M830.09453,292.89645c-.9256.12751-1.52729,1.30951-1.344,2.64.18335,1.3305,1.08228,2.30572,2.00781,2.17816.9256-.1275,1.52729-1.30945,1.34394-2.63995C831.919,293.74411,831.02006,292.76889,830.09453,292.89645Z" transform="translate(-339.82991 -171.29975)" fill="#f2f2f2"/><path d="M843.20591,287.35434c-.18335-1.33044-1.08227-2.30566-2.00781-2.17816-.9256.12756-1.52728,1.30951-1.34393,2.64.18329,1.33045,1.08221,2.30567,2.00775,2.17817C842.78752,289.86679,843.3892,288.68485,843.20591,287.35434Z" transform="translate(-339.82991 -171.29975)" fill="#f2f2f2"/><ellipse cx="823.25502" cy="278.96109" rx="1.6917" ry="2.43182" transform="translate(-370.20214 -56.31621) rotate(-7.84524)" fill="#f2f2f2"/><path d="M731.88011,442.07315h-62.63a11.555,11.555,0,0,0,0,23.11h62.63a11.555,11.555,0,1,0,0-23.11Z" transform="translate(-339.82991 -171.29975)" fill="#f2f2f2"/><path d="M775.52006,441.07315c-7.56,0-13.69995,5.63-13.69995,12.56,0,6.92,6.13995,12.55,13.69995,12.55h45.67005c.26995-.33.54-.67.81-1,.27-.33.53-.66.79-1h-47.27c-6.35,0-11.52-4.73-11.52-10.55s5.17-10.56,11.52-10.56h62.15c.2-.31.39-.62.58-.93.22-.36005.44-.71.65-1.07Z" transform="translate(-339.82991 -171.29975)" fill="#f2f2f2"/><path d="M843.28007,218.61313h-281.52a1,1,0,0,1,0-2h280.4C842.54008,217.27316,842.91008,217.94315,843.28007,218.61313Z" transform="translate(-339.82991 -171.29975)" fill="#f2f2f2"/><ellipse cx="250.28938" cy="8.64507" rx="8.45661" ry="8.64507" fill="#f2f2f2"/><ellipse cx="279.50313" cy="8.64507" rx="8.45661" ry="8.64507" fill="#f2f2f2"/><ellipse cx="308.71689" cy="8.64507" rx="8.45661" ry="8.64507" fill="#f2f2f2"/><path d="M681.85822,186.77761a.9967.9967,0,0,1-.71484-.30078l-5.70606-5.833a.99953.99953,0,0,1,0-1.39843l5.70606-5.83252a1,1,0,1,1,1.42969,1.39843l-5.022,5.1333,5.022,5.13379a1,1,0,0,1-.71485,1.69922Z" transform="translate(-339.82991 -171.29975)" fill="#f2f2f2"/><path d="M691.4466,186.77761a1,1,0,0,1-.71484-1.69922l5.02148-5.13379-5.02148-5.1333a.99995.99995,0,1,1,1.42968-1.39843l5.70557,5.83252a.99953.99953,0,0,1,0,1.39843l-5.70557,5.833A.99668.99668,0,0,1,691.4466,186.77761Z" transform="translate(-339.82991 -171.29975)" fill="#f2f2f2"/><path d="M624.78007,234.07315h-10.61a2.18934,2.18934,0,0,0-2.19,2.19v10.62a2.18938,2.18938,0,0,0,2.19,2.19h10.61a2.19794,2.19794,0,0,0,2.2-2.19v-10.62A2.1979,2.1979,0,0,0,624.78007,234.07315Z" transform="translate(-339.82991 -171.29975)" fill="#f2f2f2"/><path d="M624.78007,521.07315h-10.61a2.18934,2.18934,0,0,0-2.19,2.19v10.62a2.18938,2.18938,0,0,0,2.19,2.19h10.61a2.19794,2.19794,0,0,0,2.2-2.19v-10.62A2.1979,2.1979,0,0,0,624.78007,521.07315Z" transform="translate(-339.82991 -171.29975)" fill="#f2f2f2"/><path d="M799.53007,176.84311h-84.81a2.67,2.67,0,0,0,0,5.34h84.81a2.67,2.67,0,0,0,0-5.34Z" transform="translate(-339.82991 -171.29975)" fill="#f2f2f2"/><path d="M771.13011,265.57315h-33a6.11,6.11,0,1,0,0,12.22h33a6.11,6.11,0,0,0,0-12.22Z" transform="translate(-339.82991 -171.29975)" fill="#f2f2f2"/><path d="M856.66008,393.54312h-204.06a6.11,6.11,0,0,0,0,12.22h203.64q2.115-5.46,3.93-11.09A5.976,5.976,0,0,0,856.66008,393.54312Z" transform="translate(-339.82991 -171.29975)" fill="#f2f2f2"/><path d="M814.95005,296.12314H694.3101a22.17535,22.17535,0,0,0-22.16,22.15v36.33a22.19247,22.19247,0,0,0,22.16,22.17h120.64a22.18392,22.18392,0,0,0,22.15-22.17v-36.33A22.1668,22.1668,0,0,0,814.95005,296.12314Zm19.71,58.48a19.72138,19.72138,0,0,1-19.72,19.72h-86.6a53.08065,53.08065,0,0,1-7.17-.48h-.01a53.74139,53.74139,0,0,1-46.57-53.27v-2.3a19.74493,19.74493,0,0,1,19.72-19.71h120.64a19.72993,19.72993,0,0,1,19.71,19.71Z" transform="translate(-339.82991 -171.29975)" fill="#f2f2f2"/><circle cx="416.15108" cy="157.48577" r="20.77253" fill="#f2f2f2"/><polygon points="463.94 205.47 370.94 205.14 400.266 197.809 403.92 185.749 432.036 185.59 440.455 197.516 461.716 203.026 463.647 203.527 463.94 205.47" fill="#f2f2f2"/><path d="M744.1754,342.04828c4.45759-3.48428-1.63581-18.81181,5.72534-15.54019,0,0,8.99695-5.72533,10.80454-1.963,2.093,4.35645,9.53675,2.38013,14.10886.84246a11.10867,11.10867,0,0,1-.76065-2.60911,20.88707,20.88707,0,0,0,2.67452,1.79121,5.429,5.429,0,0,0,1.63581-1.34138,3.32223,3.32223,0,0,0,.41714-3.77053c-.76065-1.16959-2.331-1.52947-3.25525-2.56823a1.11834,1.11834,0,0,1-.1535-1.02748,2.9392,2.9392,0,0,0-2.6335-3.68088,1.057,1.057,0,0,1-.501-.10911,11.45953,11.45953,0,0,1-2.13472-1.68488c1.07145.04907-.23878-6.50954-10.8618-5.26731-2.67452-.09815-4.07122,2.85152-6.70485,3.31774-6.384-3.648-12.08241,1.61425-14.85511,6.64433C734.90853,320.11207,731.90683,336.323,744.1754,342.04828Z" transform="translate(-339.82991 -171.29975)" fill="#f2f2f2"/><path d="M453.98008,328.70974a38.59379,38.59379,0,0,1-3.7772,1.53848,31.0235,31.0235,0,0,0-5.70825-6.748,31.52264,31.52264,0,0,1,.764,8.22284,65.43435,65.43435,0,0,1-21.337,1.43234q1.11409-4.0265,2.22817-8.06367a15.42172,15.42172,0,0,1-15.97884,3.98942,26.67848,26.67848,0,0,0,11.77721-9.98416,18.39541,18.39541,0,0,0,2.09023-15.04514c-1.20957-3.66051-3.72417-6.81168-4.64724-10.53584-1.18833-4.7958,2.88592-8.90191,3.6923-13.75074.98673-5.94165,27.35292,2.90716,26.4086,5.82494,1.95223,1.31571,2.01589,4.20163,1.20957,6.40856-.80638,2.21748-2.2812,4.15915-2.80108,6.451-.50927,2.29176,6.33421,24.08492,3.63926,23.00273A14.09853,14.09853,0,0,1,453.98008,328.70974Z" transform="translate(-339.82991 -171.29975)" fill="#2f2e41"/><path d="M490.17333,393.68311,438.54584,369.426a9.20713,9.20713,0,0,1-4.44274-12.12958l0,0a9.20715,9.20715,0,0,1,12.63-4.361L499.5889,379.7767l32.80471,14.95592a8.03455,8.03455,0,1,1-1.3446,10.22357Z" transform="translate(-339.82991 -171.29975)" fill="#3f3d56"/><path d="M446.83709,379.11277h0a2.715,2.715,0,0,1-3.159-.923,3.522,3.522,0,0,0-1.76531-1.2248,3.23717,3.23717,0,0,0-.415-.09255,5.31209,5.31209,0,0,1-4.02538-2.81413c-1.26391-2.51465-3.91878-4.61905-6.44459-6.12961-2.76392-1.6529-5.65893-3.1809-7.94685-5.44741-3.30028-3.26952-5.23647-8.49091-1.35514-12.77588a10.69294,10.69294,0,0,1,6.36279-3.2936c5.085-.76508,9.92613,1.31123,14.53849,3.34187l-1.43336-1.696a40.883,40.883,0,0,0,15.915,3.74066c-.70488,1.025.4543,2.47206,1.69346,2.58105a7.14876,7.14876,0,0,0,3.51111-1.11092c1.41884-.66743,3.27145-1.07381,4.279.571a3.34745,3.34745,0,0,1,.29273,2.666A63.26254,63.26254,0,0,1,454.75467,379.381c-1.23961,1.489-2.72579,3.01667-4.651,3.23414S446.03886,380.87812,446.83709,379.11277Z" transform="translate(-339.82991 -171.29975)" fill="#3f3d56"/><path d="M490.17333,393.68311,438.54584,369.426a9.20713,9.20713,0,0,1-4.44274-12.12958l0,0a9.20715,9.20715,0,0,1,12.63-4.361L499.5889,379.7767l32.80471,14.95592a8.03455,8.03455,0,1,1-1.3446,10.22357Z" transform="translate(-339.82991 -171.29975)" fill="#a0616a"/><path d="M446.83709,379.11277h0a2.715,2.715,0,0,1-3.159-.923,3.522,3.522,0,0,0-1.76531-1.2248,3.23717,3.23717,0,0,0-.415-.09255,5.31209,5.31209,0,0,1-4.02538-2.81413c-1.26391-2.51465-3.91878-4.61905-6.44459-6.12961-2.76392-1.6529-5.65893-3.1809-7.94685-5.44741-3.30028-3.26952-5.23647-8.49091-1.35514-12.77588a10.69294,10.69294,0,0,1,6.36279-3.2936c5.085-.76508,9.92613,1.31123,14.53849,3.34187l-1.43336-1.696a40.883,40.883,0,0,0,15.915,3.74066c-.70488,1.025.4543,2.47206,1.69346,2.58105a7.14876,7.14876,0,0,0,3.51111-1.11092c1.41884-.66743,3.27145-1.07381,4.279.571a3.34745,3.34745,0,0,1,.29273,2.666A63.26254,63.26254,0,0,1,454.75467,379.381c-1.23961,1.489-2.72579,3.01667-4.651,3.23414S446.03886,380.87812,446.83709,379.11277Z" transform="translate(-339.82991 -171.29975)" fill="#6c63ff"/><polygon points="104.5 533.397 115.977 533.397 121.437 489.126 104.498 489.127 104.5 533.397" fill="#a0616a"/><path d="M459.62645,705.73v-7.781l-3.01734.18434-12.28262.72764-2.84266.17463-2.17322,26.05943-.11642,1.39708h8.14959l.262-1.38737,1.1836-6.30625,3.05614,6.30625.66943,1.38737h21.60622a4.88192,4.88192,0,0,0,4.851-4.86068C479.88409,717.37234,461.91609,708.16522,459.62645,705.73Z" transform="translate(-339.82991 -171.29975)" fill="#2f2e41"/><polygon points="76.899 313.151 94.93 417.511 102.174 501.118 126.15 505.773 130.507 396.49 116.566 321.655 76.899 313.151" fill="#2f2e41"/><polygon points="194.678 490.874 205.974 488.844 203.517 444.305 186.845 447.303 194.678 490.874" fill="#a0616a"/><path d="M549.74576,660.48518l-1.37636-7.65826-2.93716.71516L533.472,656.4309l-2.76694.67471,2.47066,26.03292.13254,1.39564,8.02107-1.44157.01244-1.41183.04944-6.41618,4.12344,5.66622.90429,1.24708,21.26551-3.82189a4.88194,4.88194,0,0,0,3.91467-5.64211C571.74335,668.36057,552.43006,662.477,549.74576,660.48518Z" transform="translate(-339.82991 -171.29975)" fill="#2f2e41"/><path d="M402.8856,443.75358l-.73684,19.79838s-10.19071,44.79244,21.8203,50.65682,75.3661,16.4601,75.3661,16.4601l28.64492,100.40427,17-3s-2-85-5-97,2.4874-25.48421-24.2563-36.74211-53.4376-29.20935-53.4376-29.20935l-5.88991-33.53662Z" transform="translate(-339.82991 -171.29975)" fill="#2f2e41"/><path d="M404.81808,347.10407l3.84532-11.53595a13.57547,13.57547,0,0,1,12.03736-9.25643l3.41666-.21218a13.57546,13.57546,0,0,1,13.81337,9.54649v0a13.52356,13.52356,0,0,0,11.74051,9.51558c9.98666.85083,11.30959,21.48023,11.30959,31.91155,0,15.73031-10.37159,30.62922-7.00081,34s9.49438,18.9126,5,23c-1.171,1.065,1.62507,11.33116,2,15,.679,6.64428-39.30809-5.777-52.79122-1.96924s-6.74156-24.71906-8.98875-26.96625c-1.51761-1.51762,5.89886-5.67948,4.38129-8.22189a13.53328,13.53328,0,0,1-1.65743-4.3209l-5.86993-19.5866c-.06442-.326-.116-.64544-.15624-.97533-.51119-4.19231-7.35369-34.80125,4.08228-38.95979C412.33962,343.57878,404.81808,347.10407,404.81808,347.10407Z" transform="translate(-339.82991 -171.29975)" fill="#6c63ff"/><path d="M590.8867,434.06394c-3.0835-6.32612-9.31781-10.40564-15.26343-14.1709q-31.53405-19.97031-63.06805-39.94049c-7.21979-4.57221-15.21015-9.33161-23.69373-8.30231-10.48535,1.27222-17.733,10.76727-23.72363,19.46637-5.4328,7.889-11.05261,16.29523-11.67712,25.85351-.62445,9.55835,5.93,20.27875,15.50628,20.49476q-13.2376,11.3963-26.47516,22.7926l37.701.59472,1.04114-4.00726q27.12927,14.2954,54.25842,28.59076c5.49,2.89288,11.27808,5.861,17.483,5.772,11.17591-.16027,19.56965-9.836,26.39716-18.68536C588.01121,461.32565,597.083,446.77615,590.8867,434.06394Z" transform="translate(-339.82991 -171.29975)" fill="#fff"/><path d="M594.35563,441.25382a23.15264,23.15264,0,0,0-7.23291-14.72535c-4.26629-4.147-9.53155-7.16388-14.52642-10.32708q-18.07956-11.44959-36.15906-22.89923-9.24994-5.85792-18.49994-11.71589c-5.47431-3.46679-10.89551-7.202-16.96161-9.57537-5.47113-2.14063-11.51581-2.77228-17.10376-.67859-4.99353,1.871-9.13879,5.37884-12.64258,9.32568a120.98978,120.98978,0,0,0-10.05475,13.63178c-3.41607,5.1521-6.61468,10.61969-8.21606,16.63916a24.95134,24.95134,0,0,0,.545,15.64086c1.71186,4.36725,4.68708,8.44336,8.9079,10.6673a14.93217,14.93217,0,0,0,3.1153,1.2157l-24.09559,20.744a1.51516,1.51516,0,0,0,1.06067,2.56067l37.701.59472a1.5009,1.5009,0,0,0,0-3q-16.86923-.26613-33.73852-.53222,11.78668-10.14724,23.5733-20.29444a1.5156,1.5156,0,0,0-1.06061-2.56066c-9.32385-.32856-14.59314-10.88959-13.9906-19.20832.4198-5.79681,2.87885-11.22778,5.78461-16.17688a141.902,141.902,0,0,1,9.4331-13.94879c3.03913-3.99609,6.50354-7.901,10.8086-10.56317a19.57138,19.57138,0,0,1,15.079-2.46643c5.87939,1.39654,11.09112,4.71826,16.13684,7.91272q8.40976,5.32425,16.81811,10.65082,17.23866,10.917,34.47724,21.8341c5.22272,3.3075,10.5473,6.49671,15.6485,9.99024,4.36529,2.98962,8.64636,6.594,10.77282,11.5744,4.52381,10.59528-1.91357,22.17548-7.85968,30.76056a115.135,115.135,0,0,1-10.17871,12.84692c-3.41235,3.67188-7.32458,7.17841-12.02581,9.0907-5.277,2.14648-10.695,1.59906-15.92145-.42682a80.7691,80.7691,0,0,1-8.36182-4.04309q-4.52151-2.38257-9.04309-4.76514c-11.91034-6.276-22.56464-18.95355-35.73114-18.82806-3.32394.03168-5.88165-3.0993-8.82251-4.64893-1.70673-.89935-3.22467,1.68909-1.51416,2.5904q19.189,10.11144,38.37793,20.22278c6.21191,3.27331,12.38513,6.6372,18.65088,9.80627,5.48236,2.77277,11.43017,5.14972,17.69244,4.37958,11.03247-1.35675,18.862-10.717,25.23505-18.9657a89.2911,89.2911,0,0,0,10.04578-15.5116C592.98692,452.88242,594.84605,447.08548,594.35563,441.25382Z" transform="translate(-339.82991 -171.29975)" fill="#ccc"/><path d="M533.3092,419.93934l0,0c-.03955.00852-.07793.01951-.11732.02841a11.5777,11.5777,0,0,0-13.70907-8.67022l0,0a11.57806,11.57806,0,0,0-8.909,13.607l-.00385.00083.03277.15206,0,0,4.847,22.48791,22.64-4.87982-.014-.06481c.03777-.00775.07546-.01329.11324-.02143h0a11.58,11.58,0,0,0,8.88009-13.75988l0,0A11.58,11.58,0,0,0,533.3092,419.93934Z" transform="translate(-339.82991 -171.29975)" fill="#6c63ff"/><path d="M773.27207,424.77731v0c-.00242.04039-.00216.08031-.00417.12064a11.5777,11.5777,0,0,0-12.03648,10.87357v0a11.57807,11.57807,0,0,0,10.71107,12.239l-.00024.00393.15527.00931h0l22.96311,1.37686,1.38618-23.1184-.06618-.004c.00269-.03845.00749-.07625.0098-.11483v0a11.57993,11.57993,0,0,0-10.86608-12.25228h0A11.58,11.58,0,0,0,773.27207,424.77731Z" transform="translate(-339.82991 -171.29975)" fill="#e6e6e6"/><path d="M581.27207,216.77731v0c-.00242.04039-.00216.08031-.00417.12064a11.5777,11.5777,0,0,0-12.03648,10.87357v0a11.57807,11.57807,0,0,0,10.71107,12.239l-.00024.00393.15527.00931h0l22.96311,1.37686,1.38618-23.1184-.06618-.004c.00269-.03845.00749-.07625.0098-.11483v0a11.57993,11.57993,0,0,0-10.86608-12.25228h0A11.58,11.58,0,0,0,581.27207,216.77731Z" transform="translate(-339.82991 -171.29975)" fill="#e6e6e6"/><path d="M470.66892,413.41611l-47.446-31.66522a9.20714,9.20714,0,0,1-2.58948-12.6554l0,0a9.20715,9.20715,0,0,1,13.13805-2.43422l48.27637,34.40333,30.21575,19.66818a8.03456,8.03456,0,1,1-2.85005,9.90992Z" transform="translate(-339.82991 -171.29975)" fill="#a0616a"/><path d="M429.98142,392.563h0a2.715,2.715,0,0,1-2.98659-1.38253,3.52214,3.52214,0,0,0-1.56354-1.47372,3.24,3.24,0,0,0-.39658-.15323,5.312,5.312,0,0,1-3.56211-3.38147c-.87589-2.67465-3.18828-5.15046-5.46136-7.01986-2.48738-2.04556-5.123-3.98709-7.04837-6.56865-2.77735-3.724-3.91551-9.17524.5599-12.83534a10.6929,10.6929,0,0,1,6.78184-2.31073c5.14226-.00035,9.62075,2.77281,13.87984,5.4668l-1.1652-1.89028A40.883,40.883,0,0,0,444.201,367.0799c-.84948.90879.08162,2.51212,1.29079,2.80418a7.14879,7.14879,0,0,0,3.63728-.5764c1.50231-.449,3.39476-.57536,4.14651,1.201a3.34741,3.34741,0,0,1-.107,2.6799,63.26237,63.26237,0,0,1-15.3975,20.81712c-1.44726,1.28807-3.14411,2.57776-5.08022,2.50651S428.92953,394.19,429.98142,392.563Z" transform="translate(-339.82991 -171.29975)" fill="#6c63ff"/><circle cx="83.94494" cy="131.03402" r="21.52236" fill="#a0616a"/><path d="M449.67238,292.95362a7.33692,7.33692,0,0,1-4.82759,3.62871,13.9433,13.9433,0,0,1-4.35013.35008,9.58546,9.58546,0,0,0-2.87536-5.05036,8.34847,8.34847,0,0,1-1.10343,4.58352,48.75641,48.75641,0,0,1-9.54911-2.53577c1.4111,1.87794.5305,4.63661-.95494,6.4509-1.49606,1.825-3.52257,3.183-4.76393,5.17775-1.24143,1.9947-1.31565,5.08229.70024,6.28123.80638.47741,1.80373.57293,2.59949,1.07157,1.687,1.09288,1.7507,3.54381,1.32627,5.50666L436.484,328.80526a79.85585,79.85585,0,0,1-12.96554,2.70556,18.59177,18.59177,0,0,0-4.98677-7.04513,14.12842,14.12842,0,0,1-.0849,7.66054c-11.76665,1.22012-25.093,1.22012-31.24682-1.65518,1.5809-2.29182,3.17242-4.58358,4.75338-6.886a15.432,15.432,0,0,1-16.40327-1.47476A26.657,26.657,0,0,0,389.95865,316.54a18.41924,18.41924,0,0,0,6.90714-13.5279c.06366-3.85148-1.28379-7.64992-.93363-11.48016.45622-4.91249,3.756-9.28386,8-11.77727a26.16164,26.16164,0,0,1,14.24939-3.14056,76.57849,76.57849,0,0,1,14.56767,2.38728c1.27323.28643,2.54646.58354,3.81968.88066a44.18756,44.18756,0,0,1,6.18566,1.74,13.02659,13.02659,0,0,1,6.016,4.26529A7.10089,7.10089,0,0,1,449.67238,292.95362Z" transform="translate(-339.82991 -171.29975)" fill="#2f2e41"/><path d="M339.82991,727.51025a1.18647,1.18647,0,0,0,1.19007,1.19H594.31a1.19,1.19,0,1,0,0-2.38H341.02A1.18651,1.18651,0,0,0,339.82991,727.51025Z" transform="translate(-339.82991 -171.29975)" fill="#ccc"/></svg>